sfk_cyclingleg_states
version=1
nRows=9
nColumns=53
inDegrees=yes

# SIMM Motion File Header:
name sfk_cyclingleg_states
datacolumns 53
datarows 9
otherdata 1
range 0.45574087 0.46022893
endheader
time	/jointset/bb/crank_angle/value	/jointset/bb/crank_angle/speed	/jointset/spindle/pedal_angle_r/value	/jointset/spindle/pedal_angle_r/speed	/jointset/ground_pelvis/pelvis_tilt/value	/jointset/ground_pelvis/pelvis_tilt/speed	/jointset/ground_pelvis/pelvis_list/value	/jointset/ground_pelvis/pelvis_list/speed	/jointset/ground_pelvis/pelvis_rotation/value	/jointset/ground_pelvis/pelvis_rotation/speed	/jointset/ground_pelvis/pelvis_tx/value	/jointset/ground_pelvis/pelvis_tx/speed	/jointset/ground_pelvis/pelvis_ty/value	/jointset/ground_pelvis/pelvis_ty/speed	/jointset/ground_pelvis/pelvis_tz/value	/jointset/ground_pelvis/pelvis_tz/speed	/jointset/hip_r/hip_angle_r/value	/jointset/hip_r/hip_angle_r/speed	/jointset/hip_r/hip_adduction_r/value	/jointset/hip_r/hip_adduction_r/speed	/jointset/hip_r/hip_rotation_r/value	/jointset/hip_r/hip_rotation_r/speed	/jointset/knee_r/knee_angle_r/value	/jointset/knee_r/knee_angle_r/speed	/jointset/knee_r/tib_tx_r/value	/jointset/knee_r/tib_tx_r/speed	/jointset/knee_r/tib_ty_r/value	/jointset/knee_r/tib_ty_r/speed	/jointset/tib_pat_r/pat_angle_r/value	/jointset/tib_pat_r/pat_angle_r/speed	/jointset/tib_pat_r/pat_tx_r/value	/jointset/tib_pat_r/pat_tx_r/speed	/jointset/tib_pat_r/pat_ty_r/value	/jointset/tib_pat_r/pat_ty_r/speed	/jointset/ankle_r/ankle_angle_r/value	/jointset/ankle_r/ankle_angle_r/speed	/jointset/subtalar_r/subtalar_angle_r/value	/jointset/subtalar_r/subtalar_angle_r/speed	/jointset/mtp_r/mtp_angle_r/value	/jointset/mtp_r/mtp_angle_r/speed	/forceset/bifemlh_r/activation	/forceset/bifemlh_r/fiber_length	/forceset/bifemsh_r/activation	/forceset/bifemsh_r/fiber_length	/forceset/glut_max2_r/activation	/forceset/glut_max2_r/fiber_length	/forceset/vas_int_r/activation	/forceset/vas_int_r/fiber_length	/forceset/med_gas_r/activation	/forceset/med_gas_r/fiber_length	/forceset/tib_ant_r/activation	/forceset/tib_ant_r/fiber_length
      0.45574087	   -228.95367829	   -480.13863232	    213.13817476	    307.04134541	      0.00000000	     -0.00000000	     -0.00000000	     -0.00000000	      0.00000000	      0.00000000	     -0.00000000	     -0.00000000	      0.00000000	      0.00000000	     -0.00000000	     -0.00000000	     41.57498734	     87.68402742	      4.35095724	     -1.03432868	     -0.70256574	    -20.56146982	    -78.72861106	   -271.05477755	      0.00490248	     -0.01554810	     -0.48205549	     -0.09216563	     17.54456296	      0.28263169	      0.03684885	     -0.09328789	     -0.02247133	     -0.00000969	     21.80946900	     11.26707211	     -0.00000000	     -0.00000000	     -0.00000000	     -0.00000000	     -0.07334686	      0.10893313	     -0.07334686	      0.15662730	     -0.07334686	      0.13124511	     -0.07334686	      0.14161957	     -0.01467023	      0.14848676	     -0.01467023	      0.11600457
      0.45633290	   -229.23793247	   -480.13863232	    213.32008872	    307.50731169	      0.00000000	     -0.00000000	     -0.00000000	     -0.00000000	      0.00000000	      0.00000000	     -0.00000000	     -0.00000000	      0.00000000	      0.00000000	     -0.00000000	     -0.00000000	     41.62700439	     88.04160626	      4.35034201	     -1.04408418	     -0.71474217	    -20.57335395	    -78.88912086	   -271.18416355	      0.00489319	     -0.01584372	     -0.48211008	     -0.09225556	     17.54472888	      0.27802314	      0.03679357	     -0.09346827	     -0.02247138	     -0.00017731	     21.81621120	     11.50971937	     -0.00000000	     -0.00000000	     -0.00000000	     -0.00000000	     -0.07342309	      0.10891732	     -0.07342309	      0.15655219	     -0.07342309	      0.13128383	     -0.07342309	      0.14169056	     -0.01467023	      0.14848676	     -0.01467023	      0.11600457
      0.45690511	   -229.51267239	   -480.13863232	    213.49617711	    307.96149151	      0.00000000	     -0.00000000	     -0.00000000	     -0.00000000	      0.00000000	      0.00000000	     -0.00000000	     -0.00000000	      0.00000000	      0.00000000	     -0.00000000	     -0.00000000	     41.67748131	     88.38634685	      4.34974188	     -1.05350611	     -0.72651770	    -20.58472161	    -79.04432975	   -271.30476162	      0.00488404	     -0.01612956	     -0.48216289	     -0.09234047	     17.54488685	      0.27421104	      0.03674004	     -0.09364166	     -0.02247153	     -0.00034088	     21.82286432	     11.74446340	     -0.00000000	     -0.00000000	     -0.00000000	     -0.00000000	     -0.07349676	      0.10890242	     -0.07349676	      0.15647973	     -0.07349676	      0.13132140	     -0.07349676	      0.14184318	     -0.01467023	      0.14848676	     -0.01467023	      0.11600457
      0.45747732	   -229.78741232	   -480.13863232	    213.67252646	    308.41940431	      0.00000000	     -0.00000000	     -0.00000000	     -0.00000000	      0.00000000	      0.00000000	     -0.00000000	     -0.00000000	      0.00000000	      0.00000000	     -0.00000000	     -0.00000000	     41.72815526	     88.73024704	      4.34913636	     -1.06292056	     -0.73829970	    -20.59597435	    -79.19960640	   -271.42099885	      0.00487473	     -0.01641548	     -0.48221576	     -0.09242343	     17.54504282	      0.27103220	      0.03668640	     -0.09381411	     -0.02247177	     -0.00050596	     21.82965183	     11.97941600	     -0.00000000	     -0.00000000	     -0.00000000	     -0.00000000	     -0.07357043	      0.10888789	     -0.07357043	      0.15640739	     -0.07357043	      0.13135910	     -0.07357043	      0.14187847	     -0.01467023	      0.14848676	     -0.01467023	      0.11600457
      0.45809144	   -230.08227478	   -480.13863232	    213.86208477	    308.91499537	      0.00000000	     -0.00000000	     -0.00000000	     -0.00000000	      0.00000000	      0.00000000	     -0.00000000	     -0.00000000	      0.00000000	      0.00000000	     -0.00000000	     -0.00000000	     41.78275933	     89.09841640	      4.34848050	     -1.07301562	     -0.75095177	    -20.60792537	    -79.36632838	   -271.54092070	      0.00486455	     -0.01672241	     -0.48227254	     -0.09251029	     17.54520839	      0.26832723	      0.03662873	     -0.09399815	     -0.02247214	     -0.00068481	     21.83708611	     12.23180228	     -0.00000000	     -0.00000000	     -0.00000000	     -0.00000000	     -0.07364950	      0.10887269	     -0.07364950	      0.15632991	     -0.07364950	      0.13139972	     -0.07364950	      0.14198464	     -0.01467023	      0.14848676	     -0.01467023	      0.11600457
      0.45870556	   -230.37713724	   -480.13863232	    214.05194874	    309.41485859	      0.00000000	     -0.00000000	     -0.00000000	     -0.00000000	      0.00000000	      0.00000000	     -0.00000000	     -0.00000000	      0.00000000	      0.00000000	     -0.00000000	     -0.00000000	     41.83758921	     89.46565138	      4.34781844	     -1.08310077	     -0.76361113	    -20.61974802	    -79.53312249	   -271.65586681	      0.00485419	     -0.01702941	     -0.48232938	     -0.09259490	     17.54537254	      0.26635605	      0.03657095	     -0.09418110	     -0.02247262	     -0.00086540	     21.84467545	     12.48441466	     -0.00000000	     -0.00000000	     -0.00000000	     -0.00000000	     -0.07372857	      0.10885792	     -0.07372857	      0.15625258	     -0.07372857	      0.13144051	     -0.07372857	      0.14210450	     -0.01467023	      0.14848676	     -0.01467023	      0.11600457
      0.45931968	   -230.67199970	   -480.13863232	    214.24212099	    309.91898008	      0.00000000	     -0.00000000	     -0.00000000	     -0.00000000	      0.00000000	      0.00000000	     -0.00000000	     -0.00000000	      0.00000000	      0.00000000	     -0.00000000	     -0.00000000	     41.89264433	     89.83196906	      4.34715019	     -1.09317536	     -0.77627772	    -20.63144429	    -79.69998566	   -271.76586097	      0.00484363	     -0.01733646	     -0.48238627	     -0.09267725	     17.54553569	      0.26512071	      0.03651306	     -0.09436297	     -0.02247320	     -0.00104771	     21.85242000	     12.73724589	     -0.00000000	     -0.00000000	     -0.00000000	     -0.00000000	     -0.07380764	      0.10884358	     -0.07380764	      0.15617541	     -0.07380764	      0.13148144	     -0.07380764	      0.14216491	     -0.01467023	      0.14848676	     -0.01467023	      0.11600457
      0.45977430	   -230.89028372	   -480.13863232	    214.38310391	    310.29491165	      0.00000000	     -0.00000000	     -0.00000000	     -0.00000000	      0.00000000	      0.00000000	     -0.00000000	     -0.00000000	      0.00000000	      0.00000000	     -0.00000000	     -0.00000000	     41.93354590	     90.10256972	      4.34665151	     -1.10062629	     -0.78565928	    -20.64002265	    -79.82355567	   -271.84411257	      0.00483570	     -0.01756377	     -0.48242842	     -0.09273678	     17.54565611	      0.26468135	      0.03647013	     -0.09449691	     -0.02247371	     -0.00118377	     21.85825327	     12.92455133	     -0.00000000	     -0.00000000	     -0.00000000	     -0.00000000	     -0.07386617	      0.10883324	     -0.07386617	      0.15611838	     -0.07386617	      0.13151185	     -0.07386617	      0.14231644	     -0.01467023	      0.14848676	     -0.01467023	      0.11600457
      0.46022893	   -231.10856774	   -480.13863232	    214.52425827	    310.67316398	      0.00000000	     -0.00000000	     -0.00000000	     -0.00000000	      0.00000000	      0.00000000	     -0.00000000	     -0.00000000	      0.00000000	      0.00000000	     -0.00000000	     -0.00000000	     41.97457039	     90.37268362	      4.34614944	     -1.10807079	     -0.79504473	    -20.64853356	    -79.94716063	   -271.91967246	      0.00482766	     -0.01779109	     -0.48247059	     -0.09279507	     17.54577642	      0.26464705	      0.03642714	     -0.09463026	     -0.02247428	     -0.00132077	     21.86417172	     13.11196992	     -0.00000000	     -0.00000000	     -0.00000000	     -0.00000000	     -0.07392470	      0.10882313	     -0.07392470	      0.15606144	     -0.07392470	      0.13154235	     -0.07392470	      0.14233163	     -0.01467023	      0.14848676	     -0.01467023	      0.11600457
